PathFileType	4	(X/Y/Z)	D:\TRACE\spotREDO_2-26-24\spot_justBody_Motion_2_3-platform.trc
DataRate	CameraRate	NumFrames	NumMarkers	Units	OrigDataRate	OrigDataStartFrame	OrigNumFrames
100.00	100.00	      24	5	mm	100.00	5251	      7000
Frame#	Time	Left_Front			Right_Front			Left_Aft			Right_Aft			Post			
		X1	Y1	Z1	X2	Y2	Z2	X3	Y3	Z3	X4	Y4	Z4	X5	Y5	Z5	

5251	52.500	-687.27161	36.75994	-563.60364	727.50757	39.94096	-479.34143	-758.07196	-37.88264	653.22980	812.12653	-30.86889	655.99738	21.73220	690.59863	-926.61841	
5252	52.510	-688.41608	36.08550	-563.96161	726.40588	39.17102	-479.53540	-759.21027	-36.93734	653.01654	810.87329	-29.81389	655.83710	21.00078	689.23279	-927.61707	
5253	52.520	-689.38739	34.77383	-564.20233	725.40387	38.42443	-479.80841	-760.27612	-36.01852	652.75909	809.91180	-28.72631	655.73572	19.64112	687.56396	-928.98340	
5254	52.530	-690.66589	34.03608	-564.48450	724.08459	37.85244	-480.37186	-761.29059	-35.09327	652.53552	808.67377	-27.78689	655.49268	19.02161	685.99304	-929.95215	
5255	52.540	-691.75262	33.17450	-564.84680	723.13007	37.15643	-480.52588	-762.54755	-34.09318	652.32281	807.81982	-26.73361	655.37866	17.60683	684.51019	-931.30975	
5256	52.550	-692.89679	31.97173	-565.21399	722.09332	36.04617	-480.79010	-763.48029	-32.95796	651.98773	806.77728	-25.58889	655.16284	16.55865	682.79309	-932.73334	
5257	52.560	-693.89423	30.91713	-565.46014	720.65619	34.96729	-481.12674	-764.73279	-31.89587	651.81055	805.64258	-24.75691	655.09955	15.37583	681.25549	-934.07672	
5258	52.570	-695.24023	30.00872	-565.90436	719.84985	34.34770	-481.60052	-765.77710	-30.90737	651.77985	804.36212	-23.73509	654.58331	14.15137	679.49646	-935.51147	
5259	52.580	-696.42041	29.23421	-566.10681	718.40979	33.61188	-481.76205	-766.91443	-29.76331	651.37286	803.14099	-22.70486	654.28345	13.27875	677.82727	-936.85352	
5260	52.590	-697.28961	27.83378	-566.47302	717.55408	32.46959	-482.07950	-768.07501	-28.58260	651.33734	802.43494	-21.70634	654.14801	12.13574	676.25903	-938.44409	
5261	52.600	-698.54657	26.91847	-566.94299	716.50610	31.37121	-482.35751	-769.10260	-27.43432	650.97766	800.94971	-20.01006	654.08386	11.11756	674.24695	-940.24646	
5262	52.610	-699.71515	25.87502	-567.13525	715.30682	30.51617	-482.76517	-770.36096	-26.16208	650.81653	799.88580	-18.96836	653.96704	9.87944	672.26477	-941.85114	
5263	52.620	-700.74078	24.36570	-567.42877	713.99689	29.24361	-483.12512	-771.44440	-25.15125	650.57715	798.39722	-17.78959	653.67188	8.67529	670.55005	-943.81317	
5264	52.630	-701.77356	23.46978	-567.83685	713.07465	28.54540	-483.40656	-772.70947	-23.77111	650.43439	797.34558	-16.60775	653.29974	7.41274	668.64813	-945.41980	
5265	52.640	-703.02246	22.46413	-568.26233	711.68610	27.54312	-483.79214	-773.90875	-22.45704	649.90991	796.26520	-15.19117	653.05798	6.42714	666.99536	-946.97748	
5266	52.650	-703.98090	20.97579	-568.56537	710.99243	26.56820	-483.96414	-774.87384	-21.51233	649.78827	795.51898	-14.54807	652.81696	5.43584	664.99915	-948.50854	
5267	52.660	-705.24463	20.14422	-568.96393	709.60712	25.50158	-484.48657	-776.27765	-20.23654	649.36768	794.25012	-13.29774	652.09454	4.23188	663.11975	-950.04584	
5268	52.670	-706.15540	18.81616	-569.10474	708.36310	24.82094	-485.04410	-777.25555	-18.99307	649.20245	792.76447	-11.92023	652.36243	2.96215	661.16309	-951.69208	
5269	52.680	-707.49976	17.73016	-569.58795	707.40802	23.35168	-485.14041	-778.38843	-17.69555	648.88617	791.78882	-10.42538	652.02972	1.92719	659.38666	-953.33234	
5270	52.690	-708.66339	16.58519	-569.98340	706.17175	22.62357	-485.56613	-779.42468	-16.41316	648.64594	790.64709	-9.22674	651.89355	1.10330	657.56805	-954.53552	
5271	52.700	-709.68292	15.23748	-570.25635	705.17255	21.43250	-485.96155	-780.68463	-15.24864	648.40979	789.37231	-7.92813	651.38379	-0.13955	655.55695	-956.33734	
5272	52.710	-710.76941	14.26559	-570.61926	704.09808	20.53969	-486.15668	-781.73999	-13.90519	648.03735	788.17310	-7.03814	650.95325	-1.61288	653.64423	-957.72461	
5273	52.720	-711.97870	13.02731	-571.06030	702.87134	19.34904	-486.64792	-783.00085	-12.61900	647.77570	787.25250	-5.36056	651.06665	-2.68295	651.66815	-959.54376	
5274	52.730	-713.02643	11.52158	-571.36780	701.72235	18.18699	-486.94092	-784.08392	-11.36532	647.43768	786.20837	-3.99976	650.69080	-3.87957	649.60370	-961.28119	
